<?xml version="1.0" standalone="no"?><!DOCTYPE svg PUBLIC "-//W3C//DTD SVG 1.1//EN" "http://www.w3.org/Graphics/SVG/1.1/DTD/svg11.dtd"><svg t="1656240695925" class="icon" viewBox="0 0 1024 1024" version="1.1" xmlns="http://www.w3.org/2000/svg" p-id="2203" xmlns:xlink="http://www.w3.org/1999/xlink" width="128" height="128"><defs></defs><path d="M512 421.490332 149.590238 59.08057C125.311473 34.801805 84.445226 34.458094 59.45166 59.45166 34.283863 84.619457 34.292235 124.801903 59.08057 149.590238L421.490332 512 59.080706 874.409626C34.801623 898.688709 34.45832 939.555 59.45166 964.54834 84.619683 989.716363 124.801677 989.707991 149.590374 964.919294L512 602.509668 874.409762 964.91943C898.688527 989.198195 939.554774 989.541906 964.54834 964.54834 989.716137 939.380543 989.707765 899.198097 964.91943 874.409762L602.509668 512 964.919294 149.590374C989.198377 125.311291 989.54168 84.445 964.54834 59.45166 939.380317 34.283637 899.198323 34.292009 874.409626 59.080706L512 421.490332Z" p-id="2204" fill="#87939A"></path></svg>